<mxfile host="app.diagrams.net" modified="2020-04-07T14:37:40.691Z" agent="5.0 (Windows)" etag="nwJKn-VysH19Kqnvv5nU" version="12.9.8" type="github">
  <diagram name="Page-1" id="13e1069c-82ec-6db2-03f1-153e76fe0fe0">
    <mxGraphModel dx="1412" dy="1694" grid="1" gridSize="10" guides="1" tooltips="1" connect="1" arrows="1" fold="1" page="1" pageScale="1" pageWidth="1100" pageHeight="850" background="#ffffff" math="0" shadow="0">
      <root>
        <mxCell id="0" />
        <mxCell id="1" parent="0" />
        <mxCell id="tOMZ6gB8RtuER8Z842BW-2" value="Player&lt;div&gt;View&lt;/div&gt;" style="shape=umlLifeline;perimeter=lifelinePerimeter;whiteSpace=wrap;html=1;container=1;collapsible=0;recursiveResize=0;outlineConnect=0;rounded=1;shadow=0;comic=0;labelBackgroundColor=none;strokeWidth=1;fontFamily=Verdana;fontSize=12;align=center;connectable=0;allowArrows=0;" parent="1" vertex="1">
          <mxGeometry x="40" y="70" width="100" height="720" as="geometry" />
        </mxCell>
        <mxCell id="tOMZ6gB8RtuER8Z842BW-53" value="" style="html=1;points=[];perimeter=orthogonalPerimeter;rounded=0;shadow=0;comic=0;labelBackgroundColor=none;strokeWidth=1;fontFamily=Verdana;fontSize=12;align=center;connectable=0;allowArrows=0;" parent="tOMZ6gB8RtuER8Z842BW-2" vertex="1">
          <mxGeometry x="45" y="590" width="10" height="40" as="geometry" />
        </mxCell>
        <mxCell id="94hK6yyWYIt78J1WyKf--12" value="loop" style="shape=umlFrame;whiteSpace=wrap;html=1;" parent="1" vertex="1">
          <mxGeometry x="60" y="320" width="940" height="410" as="geometry" />
        </mxCell>
        <mxCell id="7baba1c4bc27f4b0-3" value="&lt;div&gt;Model&lt;/div&gt;" style="shape=umlLifeline;perimeter=lifelinePerimeter;whiteSpace=wrap;html=1;container=1;collapsible=0;recursiveResize=0;outlineConnect=0;rounded=1;shadow=0;comic=0;labelBackgroundColor=none;strokeWidth=1;fontFamily=Verdana;fontSize=12;align=center;connectable=0;allowArrows=0;" parent="1" vertex="1">
          <mxGeometry x="880" y="70" width="100" height="750" as="geometry" />
        </mxCell>
        <mxCell id="7baba1c4bc27f4b0-13" value="" style="html=1;points=[];perimeter=orthogonalPerimeter;rounded=0;shadow=0;comic=0;labelBackgroundColor=none;strokeWidth=1;fontFamily=Verdana;fontSize=12;align=center;connectable=0;allowArrows=0;" parent="7baba1c4bc27f4b0-3" vertex="1">
          <mxGeometry x="45" y="130" width="10" height="90" as="geometry" />
        </mxCell>
        <mxCell id="94hK6yyWYIt78J1WyKf--14" value="" style="html=1;points=[];perimeter=orthogonalPerimeter;rounded=0;shadow=0;comic=0;labelBackgroundColor=none;strokeWidth=1;fontFamily=Verdana;fontSize=12;align=center;connectable=0;allowArrows=0;" parent="1" vertex="1">
          <mxGeometry x="925" y="350" width="10" height="320" as="geometry" />
        </mxCell>
        <mxCell id="94hK6yyWYIt78J1WyKf--3" value="alt" style="shape=umlFrame;whiteSpace=wrap;html=1;" parent="1" vertex="1">
          <mxGeometry x="200" y="380" width="760" height="240" as="geometry" />
        </mxCell>
        <mxCell id="7baba1c4bc27f4b0-2" value="Controller" style="shape=umlLifeline;perimeter=lifelinePerimeter;whiteSpace=wrap;html=1;container=1;collapsible=0;recursiveResize=0;outlineConnect=0;rounded=1;shadow=0;comic=0;labelBackgroundColor=none;strokeWidth=1;fontFamily=Verdana;fontSize=12;align=center;allowArrows=0;connectable=0;" parent="1" vertex="1">
          <mxGeometry x="550" y="70" width="100" height="750" as="geometry" />
        </mxCell>
        <mxCell id="7baba1c4bc27f4b0-10" value="" style="html=1;points=[];perimeter=orthogonalPerimeter;rounded=0;shadow=0;comic=0;labelBackgroundColor=none;strokeWidth=1;fontFamily=Verdana;fontSize=12;align=center;connectable=0;" parent="7baba1c4bc27f4b0-2" vertex="1">
          <mxGeometry x="45" y="190" width="10" height="30" as="geometry" />
        </mxCell>
        <mxCell id="tOMZ6gB8RtuER8Z842BW-47" value="" style="html=1;points=[];perimeter=orthogonalPerimeter;rounded=0;shadow=0;comic=0;labelBackgroundColor=none;strokeWidth=1;fontFamily=Verdana;fontSize=12;align=center;connectable=0;" parent="7baba1c4bc27f4b0-2" vertex="1">
          <mxGeometry x="45" y="370" width="10" height="40" as="geometry" />
        </mxCell>
        <mxCell id="7baba1c4bc27f4b0-8" value="Player&lt;div&gt;View&lt;/div&gt;" style="shape=umlLifeline;perimeter=lifelinePerimeter;whiteSpace=wrap;html=1;container=1;collapsible=0;recursiveResize=0;outlineConnect=0;rounded=1;shadow=0;comic=0;labelBackgroundColor=none;strokeWidth=1;fontFamily=Verdana;fontSize=12;align=center;connectable=0;allowArrows=0;" parent="1" vertex="1">
          <mxGeometry x="290" y="70" width="100" height="750" as="geometry" />
        </mxCell>
        <mxCell id="7baba1c4bc27f4b0-9" value="" style="html=1;points=[];perimeter=orthogonalPerimeter;rounded=0;shadow=0;comic=0;labelBackgroundColor=none;strokeWidth=1;fontFamily=Verdana;fontSize=12;align=center;connectable=0;allowArrows=0;" parent="7baba1c4bc27f4b0-8" vertex="1">
          <mxGeometry x="45" y="130" width="10" height="70" as="geometry" />
        </mxCell>
        <mxCell id="94hK6yyWYIt78J1WyKf--13" value="" style="html=1;points=[];perimeter=orthogonalPerimeter;rounded=0;shadow=0;comic=0;labelBackgroundColor=none;strokeWidth=1;fontFamily=Verdana;fontSize=12;align=center;connectable=0;allowArrows=0;" parent="7baba1c4bc27f4b0-8" vertex="1">
          <mxGeometry x="45" y="287.5" width="10" height="272.5" as="geometry" />
        </mxCell>
        <mxCell id="7baba1c4bc27f4b0-40" value="view del giocatore corrente" style="shape=note;whiteSpace=wrap;html=1;size=14;verticalAlign=top;align=left;spacingTop=-6;rounded=0;shadow=0;comic=0;labelBackgroundColor=none;strokeWidth=1;fontFamily=Verdana;fontSize=12" parent="1" vertex="1">
          <mxGeometry x="290" y="-10" width="100" height="60" as="geometry" />
        </mxCell>
        <mxCell id="tOMZ6gB8RtuER8Z842BW-4" value="&lt;div&gt;view di tutti i giocatori&lt;/div&gt;&lt;div&gt;&lt;br&gt;&lt;/div&gt;" style="shape=note;whiteSpace=wrap;html=1;size=14;verticalAlign=top;align=left;spacingTop=-6;rounded=0;shadow=0;comic=0;labelBackgroundColor=none;strokeWidth=1;fontFamily=Verdana;fontSize=12" parent="1" vertex="1">
          <mxGeometry x="40" y="-10" width="100" height="60" as="geometry" />
        </mxCell>
        <mxCell id="tOMZ6gB8RtuER8Z842BW-5" value="&lt;div align=&quot;center&quot;&gt;&lt;font style=&quot;font-size: 34px&quot;&gt;TURNO DI GIOCO&lt;/font&gt;&lt;/div&gt;" style="shape=note;whiteSpace=wrap;html=1;size=14;verticalAlign=top;align=center;spacingTop=-6;rounded=0;shadow=0;comic=0;labelBackgroundColor=none;strokeWidth=1;fontFamily=Verdana;fontSize=12" parent="1" vertex="1">
          <mxGeometry x="40" y="-190" width="960" height="160" as="geometry" />
        </mxCell>
        <mxCell id="tOMZ6gB8RtuER8Z842BW-9" value="" style="endArrow=classic;html=1;exitX=0.1;exitY=0.273;exitDx=0;exitDy=0;exitPerimeter=0;" parent="1" edge="1">
          <mxGeometry width="50" height="50" relative="1" as="geometry">
            <mxPoint x="925" y="205.23000000000002" as="sourcePoint" />
            <mxPoint x="349" y="205" as="targetPoint" />
          </mxGeometry>
        </mxCell>
        <mxCell id="94hK6yyWYIt78J1WyKf--1" value="onMyTurn (List selectableWorkers)" style="text;html=1;align=center;verticalAlign=middle;resizable=0;points=[];labelBackgroundColor=#ffffff;" parent="tOMZ6gB8RtuER8Z842BW-9" vertex="1" connectable="0">
          <mxGeometry x="-0.0243" relative="1" as="geometry">
            <mxPoint y="-10" as="offset" />
          </mxGeometry>
        </mxCell>
        <mxCell id="tOMZ6gB8RtuER8Z842BW-17" value="" style="endArrow=classic;html=1;" parent="1" edge="1">
          <mxGeometry width="50" height="50" relative="1" as="geometry">
            <mxPoint x="345" y="259" as="sourcePoint" />
            <mxPoint x="590" y="259" as="targetPoint" />
          </mxGeometry>
        </mxCell>
        <mxCell id="tOMZ6gB8RtuER8Z842BW-18" value="onWorkerChosen()" style="text;html=1;align=center;verticalAlign=middle;resizable=0;points=[];labelBackgroundColor=#ffffff;" parent="tOMZ6gB8RtuER8Z842BW-17" vertex="1" connectable="0">
          <mxGeometry x="0.1203" y="-3" relative="1" as="geometry">
            <mxPoint y="-12" as="offset" />
          </mxGeometry>
        </mxCell>
        <mxCell id="tOMZ6gB8RtuER8Z842BW-19" value="" style="endArrow=classic;html=1;" parent="1" edge="1">
          <mxGeometry width="50" height="50" relative="1" as="geometry">
            <mxPoint x="606" y="277" as="sourcePoint" />
            <mxPoint x="925.5" y="277.0000000000001" as="targetPoint" />
          </mxGeometry>
        </mxCell>
        <mxCell id="tOMZ6gB8RtuER8Z842BW-23" value="setWorkerChoice()" style="text;html=1;align=center;verticalAlign=middle;resizable=0;points=[];labelBackgroundColor=#ffffff;" parent="tOMZ6gB8RtuER8Z842BW-19" vertex="1" connectable="0">
          <mxGeometry x="0.1229" relative="1" as="geometry">
            <mxPoint y="-9" as="offset" />
          </mxGeometry>
        </mxCell>
        <mxCell id="tOMZ6gB8RtuER8Z842BW-27" value="" style="endArrow=classic;html=1;" parent="1" edge="1">
          <mxGeometry width="50" height="50" relative="1" as="geometry">
            <mxPoint x="924" y="360" as="sourcePoint" />
            <mxPoint x="350" y="360" as="targetPoint" />
          </mxGeometry>
        </mxCell>
        <mxCell id="tOMZ6gB8RtuER8Z842BW-28" value="&lt;div&gt;onMyAction(List movableSpaces, List buildableSpaces)&lt;/div&gt;" style="text;html=1;align=center;verticalAlign=middle;resizable=0;points=[];labelBackgroundColor=#ffffff;" parent="tOMZ6gB8RtuER8Z842BW-27" vertex="1" connectable="0">
          <mxGeometry x="-0.3293" y="-2" relative="1" as="geometry">
            <mxPoint x="-17" y="-7" as="offset" />
          </mxGeometry>
        </mxCell>
        <mxCell id="tOMZ6gB8RtuER8Z842BW-29" value="" style="endArrow=classic;html=1;" parent="1" edge="1">
          <mxGeometry width="50" height="50" relative="1" as="geometry">
            <mxPoint x="344" y="440" as="sourcePoint" />
            <mxPoint x="594" y="440" as="targetPoint" />
          </mxGeometry>
        </mxCell>
        <mxCell id="tOMZ6gB8RtuER8Z842BW-30" value="onMoveChosen(Coord dest)" style="text;html=1;align=center;verticalAlign=middle;resizable=0;points=[];labelBackgroundColor=#ffffff;" parent="tOMZ6gB8RtuER8Z842BW-29" vertex="1" connectable="0">
          <mxGeometry x="0.0781" y="-2" relative="1" as="geometry">
            <mxPoint x="-8" y="-11" as="offset" />
          </mxGeometry>
        </mxCell>
        <mxCell id="tOMZ6gB8RtuER8Z842BW-31" value="" style="endArrow=classic;html=1;" parent="1" edge="1">
          <mxGeometry width="50" height="50" relative="1" as="geometry">
            <mxPoint x="607" y="454" as="sourcePoint" />
            <mxPoint x="920" y="454" as="targetPoint" />
          </mxGeometry>
        </mxCell>
        <mxCell id="tOMZ6gB8RtuER8Z842BW-32" value="&lt;div&gt;setMove()&lt;/div&gt;" style="text;html=1;align=center;verticalAlign=middle;resizable=0;points=[];labelBackgroundColor=#ffffff;" parent="tOMZ6gB8RtuER8Z842BW-31" vertex="1" connectable="0">
          <mxGeometry x="-0.1355" y="-1" relative="1" as="geometry">
            <mxPoint y="-10" as="offset" />
          </mxGeometry>
        </mxCell>
        <mxCell id="tOMZ6gB8RtuER8Z842BW-51" value="" style="endArrow=classic;html=1;" parent="1" edge="1">
          <mxGeometry width="50" height="50" relative="1" as="geometry">
            <mxPoint x="924" y="660" as="sourcePoint" />
            <mxPoint x="100" y="660" as="targetPoint" />
          </mxGeometry>
        </mxCell>
        <mxCell id="tOMZ6gB8RtuER8Z842BW-52" value="onBoardChanged()" style="text;html=1;align=center;verticalAlign=middle;resizable=0;points=[];labelBackgroundColor=#ffffff;" parent="tOMZ6gB8RtuER8Z842BW-51" vertex="1" connectable="0">
          <mxGeometry x="-0.2201" y="1" relative="1" as="geometry">
            <mxPoint x="-86" y="-10" as="offset" />
          </mxGeometry>
        </mxCell>
        <mxCell id="94hK6yyWYIt78J1WyKf--2" value="&lt;div&gt;1)il model notifica il giocatore che tocca;&lt;/div&gt;&lt;div&gt;&amp;nbsp;e gli passa la lista delle posizioni dei worker che possono essere selezionati;&lt;/div&gt;&lt;div&gt;&lt;br&gt;&lt;/div&gt;&lt;div&gt;2)la view seleziona il worker;&lt;/div&gt;&lt;div&gt;&lt;br&gt;&lt;/div&gt;&lt;div&gt;3)il model conferma comunicando la listadelle azioni possibili;&lt;/div&gt;&lt;div&gt;&lt;br&gt;&lt;/div&gt;&lt;div&gt;4)la view comunica la sua azione (tipo e coordinate);&lt;/div&gt;&lt;div&gt;&lt;br&gt;&lt;/div&gt;&lt;div&gt;5)il controller la attua sul model&lt;/div&gt;&lt;div&gt;&lt;br&gt;&lt;/div&gt;&lt;div&gt;6)si ripete 4) e 5) fino alla fine del turno&lt;/div&gt;&lt;div&gt;&lt;br&gt;&lt;/div&gt;&lt;div&gt;7)&lt;br&gt;&lt;/div&gt;" style="shape=note;whiteSpace=wrap;html=1;size=14;verticalAlign=top;align=left;spacingTop=-6;rounded=0;shadow=0;comic=0;labelBackgroundColor=none;strokeWidth=1;fontFamily=Verdana;fontSize=12" parent="1" vertex="1">
          <mxGeometry x="1050" y="80" width="290" height="440" as="geometry" />
        </mxCell>
        <mxCell id="94hK6yyWYIt78J1WyKf--4" value="[User chose to move]" style="text;html=1;strokeColor=none;fillColor=none;align=center;verticalAlign=middle;whiteSpace=wrap;rounded=0;" parent="1" vertex="1">
          <mxGeometry x="210" y="415" width="120" height="20" as="geometry" />
        </mxCell>
        <mxCell id="94hK6yyWYIt78J1WyKf--5" value="[User chose to build]" style="text;html=1;strokeColor=none;fillColor=none;align=center;verticalAlign=middle;whiteSpace=wrap;rounded=0;" parent="1" vertex="1">
          <mxGeometry x="210" y="508" width="120" height="20" as="geometry" />
        </mxCell>
        <mxCell id="94hK6yyWYIt78J1WyKf--7" value="" style="html=1;points=[];perimeter=orthogonalPerimeter;rounded=0;shadow=0;comic=0;labelBackgroundColor=none;strokeWidth=1;fontFamily=Verdana;fontSize=12;align=center;connectable=0;" parent="1" vertex="1">
          <mxGeometry x="595" y="540" width="10" height="40" as="geometry" />
        </mxCell>
        <mxCell id="94hK6yyWYIt78J1WyKf--8" value="" style="endArrow=none;dashed=1;html=1;exitX=0.002;exitY=0.521;exitDx=0;exitDy=0;exitPerimeter=0;entryX=1;entryY=0.521;entryDx=0;entryDy=0;entryPerimeter=0;" parent="1" source="94hK6yyWYIt78J1WyKf--3" target="94hK6yyWYIt78J1WyKf--3" edge="1">
          <mxGeometry width="50" height="50" relative="1" as="geometry">
            <mxPoint x="630" y="540" as="sourcePoint" />
            <mxPoint x="680" y="490" as="targetPoint" />
          </mxGeometry>
        </mxCell>
        <mxCell id="94hK6yyWYIt78J1WyKf--9" value="" style="endArrow=classic;html=1;" parent="1" edge="1">
          <mxGeometry width="50" height="50" relative="1" as="geometry">
            <mxPoint x="607.0000000000002" y="549.5799999999998" as="sourcePoint" />
            <mxPoint x="920" y="550" as="targetPoint" />
          </mxGeometry>
        </mxCell>
        <mxCell id="94hK6yyWYIt78J1WyKf--10" value="&lt;div&gt;setBuild()&lt;/div&gt;" style="text;html=1;align=center;verticalAlign=middle;resizable=0;points=[];labelBackgroundColor=#ffffff;" parent="94hK6yyWYIt78J1WyKf--9" vertex="1" connectable="0">
          <mxGeometry x="-0.1355" y="-1" relative="1" as="geometry">
            <mxPoint y="-9" as="offset" />
          </mxGeometry>
        </mxCell>
        <mxCell id="IaYlkLasJj6jUFIdIbQy-1" value="" style="endArrow=classic;html=1;" parent="1" edge="1">
          <mxGeometry width="50" height="50" relative="1" as="geometry">
            <mxPoint x="345" y="539" as="sourcePoint" />
            <mxPoint x="595" y="539" as="targetPoint" />
          </mxGeometry>
        </mxCell>
        <mxCell id="IaYlkLasJj6jUFIdIbQy-2" value="onBuildChosen(Coord dest)" style="text;html=1;align=center;verticalAlign=middle;resizable=0;points=[];labelBackgroundColor=#ffffff;" parent="IaYlkLasJj6jUFIdIbQy-1" vertex="1" connectable="0">
          <mxGeometry x="0.0781" y="-2" relative="1" as="geometry">
            <mxPoint x="-8" y="-11" as="offset" />
          </mxGeometry>
        </mxCell>
      </root>
    </mxGraphModel>
  </diagram>
</mxfile>
